<?xml version="1.0" standalone="no"?><!DOCTYPE svg PUBLIC "-//W3C//DTD SVG 1.1//EN" "http://www.w3.org/Graphics/SVG/1.1/DTD/svg11.dtd"><svg t="1550214401379" class="icon" style="" viewBox="0 0 1024 1024" version="1.1" xmlns="http://www.w3.org/2000/svg" p-id="7427" xmlns:xlink="http://www.w3.org/1999/xlink" width="48" height="48"><defs><style type="text/css"></style></defs><path d="M142.64561652 887.83086247a381.80188884 71.49823826 0 1 0 763.60377771 2e-8 381.80188884 71.49823826 0 1 0-763.60377771 0Z" fill="#C3E7FD" p-id="7428"></path><path d="M382.68277088 456.09575415a33.44198626 20.06633579 0 1 0 66.88397249 0 33.44198626 20.06633579 0 1 0-66.88397249 0Z" fill="#FFFFFF" p-id="7429"></path><path d="M181.21477655 231.58884543a241.74176325 182.50183676 0 1 0 483.48352656 0 241.74176325 182.50183676 0 1 0-483.48352656 0Z" fill="#FFFFFF" p-id="7430"></path><path d="M345.56081236 231.58884543a15.28809202 15.28809202 0 1 1-30.57809076 0 15.28809202 15.28809202 0 0 1 30.57809076 0z m77.39572748-15.28809202a15.28809202 15.28809202 0 1 0 0 30.57809074 15.28809202 15.28809202 0 0 0 0-30.57809074z m92.68381948 0a15.28809202 15.28809202 0 1 0 0 30.57809074 15.28809202 15.28809202 0 0 0 0-30.57809074z" fill="#00E2D7" p-id="7431"></path><path d="M445.10692209 519.0137462c7.9205206 13.15637753 38.02574445 46.25515393 81.2778122 52.07828102-2.37005467-25.78649994 37.10479803-57.68022842 37.10479803-57.68022841s-25.66256302-103.35764578-53.33671711-65.09356116c-27.67224737 38.26408464-55.5370736 61.93031037-65.04589312 70.69550855-8.48872357-0.19639229-8.27326407-0.19067215 0 0z" fill="#FFBFC5" p-id="7432"></path><path d="M674.4835972 405.20154711s-0.99149513 41.15658094-22.77388014 58.54015977c-8.2046221 10.21621313-2.7018242 41.27861113-2.96876518 42.32921462-0.26884772 1.05060348-7.89191977 0.22308641-17.33781751-4.42550033-5.25492411-1.34042514-6.23116546 63.88279307-68.87649635 19.91379807-16.90117829-12.70639126-59.45157258-78.4062898-32.96149248-90.11165234 26.49008012-11.70536255 70.55822463-68.16719601 70.55822463-68.16719601l74.36022703 41.92117622z" fill="#FFCFD3" p-id="7433"></path><path d="M574.05658221 450.07814149s0.85802462-40.63223259 11.66532139-45.70792491 19.97099973-49.74254732 64.05821144-3.23761289c4.95366214 9.09887441 81.25302482 30.25013469 35.48599157-22.84061538-17.79733737-17.97275572-112.78828971-62.36122941-153.11163342 7.9300542-19.46953199 28.04787148-26.29559453 52.60644282-26.29559453 52.60644283s-5.40746183 29.95649958 20.55636318 18.11575985c10.95411433-7.83662489 35.18472959-15.0821661 36.22579945-12.57864096 1.04297661 2.50352516 11.4155409 5.71253724 11.41554092 5.71253726z" fill="#443554" p-id="7434"></path><path d="M563.39419627 452.39290124c-1.62261988-17.76110964-36.55375554-49.71966667-33.89006581 7.80802404 10.41832562 5.22632331 33.89006577-7.80802404 33.89006581-7.80802404z" fill="#FFCFD3" p-id="7435"></path><path d="M574.94511435 510.42968655l-44.46474253 70.11586527 17.10138402 5.13098723-27.36145176 8.55164538-112.87027873 174.43449859-94.05856561 5.13098724s8.55164539-179.56548585 106.02896243-280.46346103c20.5220422-22.23237127 58.14546844-27.36145179 83.79659112-18.81171313 25.65493616 8.54783194 71.82810106 35.91119045 71.82810106 35.91119045z" fill="#00E2D7" p-id="7436"></path><path d="M568.10570476 595.93660678s87.21724929-42.75441347 92.34823654 37.62342627c5.13098723 80.37783969 0 213.76825393 0 213.76825392s54.72481028 22.23237127 42.75441348 42.75441345c-22.23237127 10.26006772-121.42001739 1.71032907-121.42001739 1.71032907l-13.68263263-295.85642271z" fill="#364580" p-id="7437"></path><path d="M313.29336647 773.79176353s23.94270034 116.29093687 80.37783971 121.42001738c56.43513937 5.13098723 92.34823652 3.42065814 123.13034644-46.17316486-3.42065814 39.33375533 6.8413163 47.88349398 6.84131632 47.88349396l102.60830428-3.42065817s-1.71032907-20.5220422-18.81171314-34.20276807c-3.42065814-30.78210994-5.13098723-220.60957023-5.13098722-220.60957024s-23.94270034-71.82619433-82.08626206-44.46474256c-53.01448121 30.78592338-206.92884432 179.56739255-206.92884433 179.56739256z" fill="#3E4884" p-id="7438"></path><path d="M574.94511435 510.42968655s76.89235305 31.64204127 99.98084222 40.19177995c23.08658244 8.55164539 42.75441347 86.36303813-29.07178085 71.82619434s-117.14514806-45.31895371-117.14514807-45.31895373l46.2360867-66.69902056z" fill="#FFC8CD" p-id="7439"></path><path d="M593.49751337 520.69356773s48.73961187-21.37625339 60.71000872-5.98519839l3.42065813 5.13098721s30.78210994 14.5368438 62.42033777 25.65302944c31.63822785 11.11618565 11.97039682 76.95718157-31.63822783 66.6952071 4.27486935-15.39105499 18.8117131-64.98487803-41.89829559-64.984878-11.11618565 7.69552748-58.99967963 28.21756969-35.05888598-16.24717289-11.97039682-0.8561179-19.6659243-2.56644697-17.95559522-10.26197447z" fill="#FFBFC1" p-id="7440"></path></svg>