<?xml version="1.0" standalone="no"?><!DOCTYPE svg PUBLIC "-//W3C//DTD SVG 1.1//EN" "http://www.w3.org/Graphics/SVG/1.1/DTD/svg11.dtd"><svg class="icon" width="48px" height="48.00px" viewBox="0 0 1024 1024" version="1.1" xmlns="http://www.w3.org/2000/svg"><path fill="#ffffff" d="M810.666667 853.333333 213.333333 853.333333 213.333333 170.666667 298.666667 170.666667 298.666667 298.666667 725.333333 298.666667 725.333333 170.666667 810.666667 170.666667M512 85.333333C535.466667 85.333333 554.666667 104.533333 554.666667 128 554.666667 151.466667 535.466667 170.666667 512 170.666667 488.533333 170.666667 469.333333 151.466667 469.333333 128 469.333333 104.533333 488.533333 85.333333 512 85.333333M810.666667 85.333333 632.32 85.333333C614.4 35.84 567.466667 0 512 0 456.533333 0 409.6 35.84 391.68 85.333333L213.333333 85.333333C166.4 85.333333 128 123.733333 128 170.666667L128 853.333333C128 900.266667 166.4 938.666667 213.333333 938.666667L810.666667 938.666667C857.6 938.666667 896 900.266667 896 853.333333L896 170.666667C896 123.733333 857.6 85.333333 810.666667 85.333333Z" /></svg>