<?xml version="1.0" standalone="no"?><!DOCTYPE svg PUBLIC "-//W3C//DTD SVG 1.1//EN" "http://www.w3.org/Graphics/SVG/1.1/DTD/svg11.dtd"><svg t="1548770795829" class="icon" style="" viewBox="0 0 1024 1024" version="1.1" xmlns="http://www.w3.org/2000/svg" p-id="1000" xmlns:xlink="http://www.w3.org/1999/xlink" width="64" height="64"><defs><style type="text/css"></style></defs><path d="M693.996031 725.631542c112.931049-9.402137 169.405271-25.198915 169.405271-47.391357 0-18.147312-4.716418-27.229155-14.118556-27.229155-3.373841 0-8.074909 0.335644-14.118556 1.006933-6.060019 0-11.272741-3.518127-15.637142-10.585079-1.818415-2.926656-95.279017 4.541433-95.279017 4.541433L498.384911 662.10674c12.759605-28.237111 20.497846-51.421136 23.184025-69.568449 4.02978-0.671289 13.447267-1.023306 28.237111-1.023306 28.9084 0.687662 57.800427 1.023306 86.708827 1.023306l87.732134 0c0 0 42.669822-2.720971 63.990407-3.681856 4.601808-0.207731 18.573008-6.79066 19.417235-8.04114 1.90335-2.820232 5.316076-12.485359 5.316076-12.485359 0-21.505803-2.702552-36.119639-8.074909-43.85788-5.372358-7.722892-18.819624-13.942547-40.324404-18.658965-6.043646-1.342578-16.804734-2.01489-32.265868-2.01489s-41.34771 1.854231-77.643358 5.548366c-36.295648 3.709485-62.517869 5.548366-78.634942 5.548366-5.38873 0-10.088776-0.335644-14.118556-1.006933-12.103666 0-18.819624-0.335644-20.162202-1.006933 0.635473-1.483794-88.74009 0-88.74009 0L293.691949 512.881067c0 0-71.878051-1.194198-72.081689-0.99056-3.901867 3.901867-8.191566 5.151323-13.290701 5.901407 0 0.001023-6.985088 14.155395-7.397481 18.273179-0.671289 6.731308-0.671289 11.768021 0.016373 15.125489 6.714935 18.834974 21.825075 30.250978 45.361117 34.280758 8.058536 1.342578 23.184025 2.01489 45.37749 2.01489 10.744715 0 21.505803-0.159636 32.265868-0.49528 10.744715-0.335644 21.505803-0.511653 32.265868-0.511653 14.789844 0 29.068036 0.847298 42.850947 2.526543s23.695678 2.862187 29.755698 3.533476c-4.716418 23.536043-12.120039 42.691311-22.193465 57.464783-4.701069 6.060019-8.058536 9.753131-10.073426 11.096732-8.074909 5.372358-29.579689 8.058536-64.531735 8.058536l-31.258934 0c-28.9084 0-53.451376 1.006933-73.613578 3.021823-44.369533 5.38873-66.546625 18.834974-66.546625 40.340777 0 14.118556 7.898901 23.695678 23.695678 28.732391 15.797801 5.053086 37.814234 7.563256 66.051345 7.563256 3.357468 0 20.658506-0.671289 51.916417-2.01489s52.268434-2.01489 63.029522-2.01489c-12.103666 38.997176-31.258934 78.986959-57.481156 119.982652-23.536043 36.966936-35.287691 58.488089-35.287691 64.531735 0 10.744715 4.365424 18.643616 13.110599 23.695678 8.729825 5.036713 18.147312 7.563256 28.237111 7.563256 18.131963 0 37.622876-16.46909 58.472739-49.406247 18.147312-29.579689 38.646182-64.868403 61.509912-105.864096 66.546625 30.250978 133.093251 60.823274 199.640899 91.745541 63.860447 28.237111 106.199741 42.355667 127.049604 42.355667 18.147312 0 29.40368-2.526543 33.785477-7.563256 4.365424-5.053086 6.5553-13.622252 6.5553-25.710568 0-21.521153-2.702552-33.609469-8.074909-36.295648-20.178575-6.731308-40.340777-13.110599-60.502979-19.155269-30.92329-10.761088-72.254627-28.237111-124.012432-52.42807-51.773154-24.207331-90.082668-44.033889-114.945939-59.496046l5.036713-5.053086C565.603849 733.690078 630.806873 731.003899 693.996031 725.631542z" p-id="1001" fill="#1890ff"></path><path d="M272.590352 467.419665c6.865361-1.004887 12.036128-1.930979 12.036128-1.930979l181.492564-5.053086c0 0 103.513562-4.02978 116.960829-4.02978 18.819624 0 48.399313 1.342578 88.74009 4.02978 12.759605 0.671289 30.906917 2.030239 54.44296 4.045129 5.372358-2.686179 13.447267-6.731308 24.207331-12.103666 8.058536-6.043646 19.810185-18.482957 35.287691-37.302581 5.372358-44.369533 9.06547-78.314647 11.08036-101.850689 6.714935-69.232804 10.088776-112.580055 10.088776-130.071428 0-33.609469-7.402597-58.136072-22.177092-73.598228-19.506263-20.162202-52.604078-32.601512-99.324146-37.302581s-85.206614-7.226588-115.457592-7.563256-61.830207-0.511653-94.767364-0.511653c-100.843756 0-165.039847 5.38873-192.589296 16.133446C261.090437 88.38398 250.345722 106.866936 250.345722 135.759987c0 4.716418 0.159636 9.593496 0.49528 14.630209 0.335644 5.053086 0.511653 9.91379 0.511653 14.613836l0 252.085342c-0.367367 3.78828-1.755993 14.987343-2.982938 27.131941C246.976998 457.995015 258.892375 469.425346 272.590352 467.419665zM337.549829 282.988166c3.693112-39.653115 5.548366-73.277934 5.548366-100.843756 0-12.759605 5.884011-21.170159 17.652032-25.198915s29.068036-6.060019 51.93279-6.060019c8.058536 0 21.153786 0.335644 39.317471 1.006933 18.147312 0.671289 31.930223 1.006933 41.34771 1.006933 91.409896 0 149.386332 1.358951 173.930331 4.045129 24.527626 2.686179 40.500413 8.410554 47.88766 17.140379 1.342578 2.01489 3.038196 4.365424 5.053086 7.051603-0.671289 4.02978-1.006933 8.074909-1.006933 12.103666l-17.140379 189.567473L332.017836 382.807592C332.017836 355.914082 333.856717 322.641281 337.549829 282.988166z" p-id="1002" fill="#1890ff"></path></svg>